<svg width="60" height="60" viewBox="0 0 60 60" fill="none" xmlns="http://www.w3.org/2000/svg">
<g clip-path="url(#clip0_124_126)">
<path d="M21.0581 11.7269C21.3034 12.316 21.9985 12.6052 22.5886 12.3608C23.1781 12.1167 23.4672 11.4199 23.2226 10.8304C22.9778 10.2406 22.2826 9.9517 21.692 10.1964C21.1033 10.4403 20.8126 11.1379 21.0581 11.7269Z" fill="#243143"/>
<path d="M26.0368 11.7268C26.282 12.3158 26.9771 12.6058 27.5674 12.3608C28.1569 12.1161 28.4455 11.4202 28.2013 10.8303C27.9572 10.2407 27.2607 9.95141 26.6708 10.1963C26.0819 10.4409 25.7909 11.1369 26.0368 11.7268Z" fill="#243143"/>
<path d="M23.223 19.0383C23.0307 18.5762 22.5531 18.2831 22.0544 18.3189C21.5456 18.3554 21.1103 18.7342 20.9981 19.2306C20.7664 20.2542 21.9578 21.0438 22.8154 20.4444C23.2606 20.1334 23.4284 19.539 23.223 19.0383Z" fill="#243143"/>
<path d="M28.2015 19.0383C28.0093 18.5764 27.5314 18.2831 27.033 18.3189C26.5234 18.3554 26.0892 18.7335 25.9766 19.2306C25.7449 20.2539 26.9358 21.0451 27.7936 20.4444C28.239 20.1327 28.4074 19.54 28.2015 19.0383Z" fill="#243143"/>
<path d="M14.1444 37.1164H9.77578V33.3668C9.77578 32.737 10.2881 32.2247 10.9179 32.2247H14.8327C15.4798 32.2247 16.0045 31.6999 16.0045 31.0528C16.0045 30.4057 15.4798 29.8809 14.8327 29.8809H10.9179C8.99578 29.8809 7.43203 31.4447 7.43203 33.3668V37.1164H3.0634C1.37426 37.1164 0 38.4906 0 40.1797V51.0101C0 52.6992 1.37426 54.0735 3.0634 54.0735H14.1445C15.8337 54.0735 17.2079 52.6992 17.2079 51.0101V40.1797C17.2078 38.4906 15.8336 37.1164 14.1444 37.1164ZM2.34375 40.1797C2.34375 39.7829 2.6666 39.4601 3.0634 39.4601H14.1445C14.5413 39.4601 14.8642 39.7829 14.8642 40.1797V42.1984H2.34375V40.1797ZM14.8641 51.0101C14.8641 51.4069 14.5412 51.7297 14.1444 51.7297H3.0634C2.6666 51.7297 2.34375 51.4069 2.34375 51.0101V44.5421H14.8641V51.0101Z" fill="#243143"/>
<path d="M56.9369 37.1164H52.5683V33.3668C52.5683 31.4447 51.0045 29.8809 49.0824 29.8809H31.1722V24.8009H41.1882C41.4506 24.8009 41.7085 24.711 41.9143 24.5484C41.9623 24.5106 42.1418 24.2844 42.1931 24.2844C43.4677 23.0299 44.1987 21.2848 44.1987 19.4965C44.1987 18.0012 43.6861 16.5373 42.7733 15.3639C43.6859 14.1906 44.1987 12.7266 44.1987 11.2312C44.1987 9.44367 43.4683 7.6991 42.1944 6.44472C41.9067 6.16148 41.617 5.92664 41.1881 5.92664H18.8124C18.384 5.92664 18.0936 6.16171 17.806 6.44484C16.5323 7.6991 15.8018 9.44367 15.8018 11.2312C15.8018 12.7267 16.3146 14.1906 17.2272 15.3639C16.3146 16.5371 15.8018 18.0012 15.8018 19.4965C15.8018 21.2849 16.5329 23.03 17.8075 24.2843C18.0948 24.5669 18.3843 24.8009 18.8123 24.8009H28.8284V29.8809H25.1455C24.4984 29.8809 23.9736 30.4057 23.9736 31.0528C23.9736 31.6999 24.4984 32.2247 25.1455 32.2247H28.8284V37.1164H24.5827C22.8936 37.1164 21.5193 38.4907 21.5193 40.1798V51.0102C21.5193 52.6993 22.8936 54.0736 24.5827 54.0736H35.5323C37.2214 54.0736 38.5957 52.6993 38.5957 51.0102V40.1798C38.5957 38.4907 37.2214 37.1164 35.5323 37.1164H31.1722V32.2247H49.0824C49.7122 32.2247 50.2245 32.737 50.2245 33.3668V37.1164H45.8559C44.1668 37.1164 42.7925 38.4907 42.7925 40.1798V51.0102C42.7925 52.6993 44.1668 54.0736 45.8559 54.0736H56.937C58.6262 54.0736 60.0004 52.6993 60.0004 51.0102V40.1798C60.0003 38.4906 58.6261 37.1164 56.9369 37.1164ZM19.3003 8.27027H40.7002C41.4365 9.07242 41.855 10.1394 41.855 11.2311C41.855 12.3228 41.4366 13.3897 40.7004 14.1919H19.3003C18.564 13.3897 18.1455 12.323 18.1455 11.2311C18.1456 10.1394 18.5641 9.0723 19.3003 8.27027ZM18.1456 19.4964C18.1456 18.4048 18.5641 17.3375 19.3004 16.5355H40.7004C41.4366 17.3377 41.8551 18.4046 41.8551 19.4964C41.8551 20.5881 41.4368 21.655 40.7005 22.4571H19.3003C18.564 21.655 18.1456 20.5882 18.1456 19.4964ZM36.2518 51.0101C36.2518 51.4069 35.9289 51.7297 35.5321 51.7297H24.5827C24.1859 51.7297 23.8631 51.4069 23.8631 51.0101V44.5421H36.2518V51.0101ZM36.2518 40.1797V42.1984H23.8631V40.1797C23.8631 39.7829 24.1859 39.4601 24.5827 39.4601H35.5323C35.9289 39.4602 36.2518 39.7829 36.2518 40.1797ZM45.1362 40.1797C45.1362 39.7829 45.4591 39.4601 45.8559 39.4601H56.937C57.3338 39.4601 57.6567 39.7829 57.6567 40.1797V42.1984H45.1362V40.1797ZM57.6566 51.0101C57.6566 51.4069 57.3337 51.7297 56.9369 51.7297H45.8558C45.459 51.7297 45.1361 51.4069 45.1361 51.0101V44.5421H57.6566V51.0101Z" fill="#243143"/>
<path d="M21.1052 30.6047C20.8634 30.0143 20.1625 29.7267 19.5747 29.9707C18.9845 30.2156 18.6961 30.9104 18.9407 31.5012C19.1849 32.091 19.8814 32.3794 20.4712 32.1352C21.0596 31.8915 21.3506 31.1933 21.1052 30.6047Z" fill="#243143"/>
</g>
<defs>
<clipPath id="clip0_124_126">
<rect width="60" height="60" fill="white"/>
</clipPath>
</defs>
</svg>
