<svg width="60" height="60" viewBox="0 0 60 60" fill="none" xmlns="http://www.w3.org/2000/svg">
<g clip-path="url(#clip0_124_136)">
<path d="M1.17188 17.1094C1.8191 17.1094 2.34375 16.5847 2.34375 15.9375V3.51562C2.34375 2.86945 2.86945 2.34375 3.51562 2.34375H15.9375C16.5847 2.34375 17.1094 1.8191 17.1094 1.17188C17.1094 0.524648 16.5847 0 15.9375 0H3.51562C1.57711 0 0 1.57711 0 3.51562V15.9375C0 16.5847 0.524648 17.1094 1.17188 17.1094Z" fill="#243143"/>
<path d="M3.51562 60H15.9375C16.5847 60 17.1094 59.4754 17.1094 58.8281C17.1094 58.1809 16.5847 57.6562 15.9375 57.6562H3.51562C2.86945 57.6562 2.34375 57.1305 2.34375 56.4844V44.0625C2.34375 43.4153 1.8191 42.8906 1.17188 42.8906C0.524648 42.8906 0 43.4153 0 44.0625V56.4844C0 58.4229 1.57711 60 3.51562 60Z" fill="#243143"/>
<path d="M56.4844 0H44.0625C43.4153 0 42.8906 0.524648 42.8906 1.17188C42.8906 1.8191 43.4153 2.34375 44.0625 2.34375H56.4844C57.1305 2.34375 57.6562 2.86945 57.6562 3.51562V15.9375C57.6562 16.5847 58.1809 17.1094 58.8281 17.1094C59.4754 17.1094 60 16.5847 60 15.9375V3.51562C60 1.57711 58.4229 0 56.4844 0Z" fill="#243143"/>
<path d="M58.8281 42.8906C58.1809 42.8906 57.6562 43.4153 57.6562 44.0625V56.4844C57.6562 57.1305 57.1305 57.6562 56.4844 57.6562H44.0625C43.4153 57.6562 42.8906 58.1809 42.8906 58.8281C42.8906 59.4754 43.4153 60 44.0625 60H56.4844C58.4229 60 60 58.4229 60 56.4844V44.0625C60 43.4153 59.4754 42.8906 58.8281 42.8906Z" fill="#243143"/>
<path d="M58.8281 28.8281H1.17188C0.524648 28.8281 0 29.3528 0 30C0 30.6472 0.524648 31.1719 1.17188 31.1719H58.8281C59.4754 31.1719 60 30.6472 60 30C60 29.3528 59.4754 28.8281 58.8281 28.8281Z" fill="#243143"/>
<path d="M47.5781 24.1406C48.2254 24.1406 48.75 23.616 48.75 22.9688C48.75 12.63 40.3387 4.21875 30 4.21875C19.6613 4.21875 11.25 12.63 11.25 22.9688C11.25 23.616 11.7746 24.1406 12.4219 24.1406C13.0691 24.1406 13.5938 23.616 13.5938 22.9688C13.5938 13.9223 20.9536 6.5625 30 6.5625C39.0464 6.5625 46.4062 13.9223 46.4062 22.9688C46.4062 23.616 46.9309 24.1406 47.5781 24.1406Z" fill="#243143"/>
<path d="M20.625 37.0312C20.625 36.384 20.1004 35.8594 19.4531 35.8594C18.8059 35.8594 18.2812 36.384 18.2812 37.0312C18.2812 43.493 23.5383 48.75 30 48.75C36.4617 48.75 41.7188 43.493 41.7188 37.0312C41.7188 36.384 41.1941 35.8594 40.5469 35.8594C39.8996 35.8594 39.375 36.384 39.375 37.0312C39.375 42.2006 35.1694 46.4062 30 46.4062C24.8306 46.4062 20.625 42.2006 20.625 37.0312Z" fill="#243143"/>
<path d="M39.375 22.9688C39.375 23.616 39.8996 24.1406 40.5469 24.1406C41.1941 24.1406 41.7188 23.616 41.7188 22.9688C41.7188 16.507 36.4617 11.25 30 11.25C23.5383 11.25 18.2812 16.507 18.2812 22.9688C18.2812 23.616 18.8059 24.1406 19.4531 24.1406C20.1004 24.1406 20.625 23.616 20.625 22.9688C20.625 17.7994 24.8306 13.5938 30 13.5938C35.1694 13.5938 39.375 17.7994 39.375 22.9688Z" fill="#243143"/>
<path d="M34.6875 37.0312C34.6875 36.384 34.1629 35.8594 33.5156 35.8594C32.8684 35.8594 32.3438 36.384 32.3438 37.0312C32.3438 38.3236 31.2923 39.375 30 39.375C28.7077 39.375 27.6562 38.3236 27.6562 37.0312C27.6562 36.384 27.1316 35.8594 26.4844 35.8594C25.8371 35.8594 25.3125 36.384 25.3125 37.0312C25.3125 39.6159 27.4153 41.7188 30 41.7188C32.5847 41.7188 34.6875 39.6159 34.6875 37.0312Z" fill="#243143"/>
<path d="M25.3125 22.9688C25.3125 23.616 25.8371 24.1406 26.4844 24.1406C27.1316 24.1406 27.6562 23.616 27.6562 22.9688C27.6562 21.6764 28.7077 20.625 30 20.625C31.2923 20.625 32.3438 21.6764 32.3438 22.9688C32.3438 23.616 32.8684 24.1406 33.5156 24.1406C34.1629 24.1406 34.6875 23.616 34.6875 22.9688C34.6875 20.3841 32.5847 18.2812 30 18.2812C27.4153 18.2812 25.3125 20.3841 25.3125 22.9688Z" fill="#243143"/>
<path d="M30 55.7812C30.6472 55.7812 31.1719 55.2566 31.1719 54.6094C31.1719 53.9622 30.6472 53.4375 30 53.4375C29.3528 53.4375 28.8281 53.9622 28.8281 54.6094C28.8281 55.2566 29.3528 55.7812 30 55.7812Z" fill="#243143"/>
<path d="M48.7502 37.0312C48.7502 36.384 48.2256 35.8594 47.5784 35.8594C46.9311 35.8594 46.4065 36.384 46.4065 37.0312C46.4065 44.2642 41.7695 50.5624 34.868 52.7036C34.2498 52.8953 33.9041 53.5519 34.0959 54.17C34.2871 54.7863 34.9426 55.1344 35.5624 54.9421C43.0942 52.6055 48.7502 45.5593 48.7502 37.0312Z" fill="#243143"/>
<path d="M12.4219 35.8594C11.7746 35.8594 11.25 36.384 11.25 37.0312C11.25 45.5554 16.9021 52.6042 24.4379 54.9421C25.0523 55.1327 25.7115 54.7917 25.9044 54.17C26.0962 53.552 25.7505 52.8954 25.1324 52.7036C18.2307 50.5624 13.5938 44.2642 13.5938 37.0312C13.5938 36.384 13.0691 35.8594 12.4219 35.8594Z" fill="#243143"/>
</g>
<defs>
<clipPath id="clip0_124_136">
<rect width="60" height="60" fill="white"/>
</clipPath>
</defs>
</svg>
