<svg width="60" height="60" viewBox="0 0 60 60" fill="none" xmlns="http://www.w3.org/2000/svg">
<g clip-path="url(#clip0_124_109)">
<path d="M53.0929 38.117V21.8831C55.1124 21.3613 56.6085 19.5241 56.6085 17.344C56.6168 13.1592 51.4577 11.0907 48.5785 14.0611L34.5169 5.94259C35.3703 3.0269 33.0483 -0.0463955 30 0.000595767C26.9525 -0.0465127 24.6292 3.02726 25.4834 5.94271L23.0579 7.34307C22.4974 7.66662 22.3053 8.38332 22.629 8.94382C22.9544 9.50947 23.6792 9.69334 24.2297 9.37272L26.6576 7.97095C28.4002 9.82786 31.6006 9.82728 33.3426 7.97095L47.4043 16.0894C46.6688 18.5756 48.3011 21.3014 50.7492 21.8832V38.1171C48.3011 38.6987 46.6687 41.425 47.4043 43.9109L33.3426 52.0293C31.6 50.1725 28.3996 50.173 26.6574 52.0293L12.5958 43.9108C13.3313 41.4245 11.699 38.6988 9.25087 38.1171V21.8831C11.699 21.3016 13.3314 18.5753 12.5958 16.0893L15.0947 14.6466C15.6552 14.3231 15.8472 13.6064 15.5236 13.0459C15.2 12.4853 14.4832 12.2933 13.9228 12.617L11.4216 14.0611C8.54073 11.0901 3.38353 13.16 3.39173 17.344C3.39173 19.5241 4.88783 21.3613 6.90717 21.8831V38.117C4.88772 38.6387 3.39161 40.4759 3.39161 42.656C3.38329 46.8408 8.54225 48.9095 11.4215 45.939L25.4833 54.0575C24.6299 56.9732 26.9519 60.0465 30 59.9995C33.0477 60.0466 35.371 56.9729 34.5168 54.0574L48.5785 45.9391C51.4595 48.91 56.6165 46.84 56.6083 42.656C56.6085 40.4759 55.1124 38.6387 53.0929 38.117ZM30 7.03159C28.7077 7.03159 27.6563 5.98021 27.6563 4.68789C27.7742 1.58283 32.2263 1.58377 32.3437 4.68789C32.3437 5.98021 31.2924 7.03159 30 7.03159ZM5.73532 17.344C5.73532 16.0517 6.7867 15.0003 8.07902 15.0003C11.184 15.1182 11.1831 19.5703 8.07902 19.6877C6.7867 19.6877 5.73532 18.6362 5.73532 17.344ZM8.07902 44.9998C6.7867 44.9998 5.73532 43.9485 5.73532 42.6561C5.8532 39.5512 10.3053 39.552 10.4227 42.6561C10.4227 43.9483 9.37134 44.9998 8.07902 44.9998ZM30 57.6558C28.7077 57.6558 27.6563 56.6045 27.6563 55.3121C27.7742 52.2071 32.2263 52.208 32.3437 55.3121C32.3437 56.6045 31.2924 57.6558 30 57.6558ZM49.5773 17.344C49.5773 16.0517 50.6287 15.0003 51.9211 15.0003C55.0261 15.1181 55.0252 19.5703 51.9211 19.6877C50.6287 19.6877 49.5773 18.6362 49.5773 17.344ZM51.9211 44.9998C50.6287 44.9998 49.5773 43.9485 49.5773 42.6561C49.6951 39.5512 54.1475 39.552 54.2648 42.6561C54.2648 43.9483 53.2134 44.9998 51.9211 44.9998Z" fill="#243143"/>
<path d="M14.7656 21.8812V38.1187C14.7656 38.5374 14.989 38.9243 15.3516 39.1336L29.4138 47.2524C29.7763 47.4618 30.2229 47.4617 30.5857 47.2524L44.648 39.1336C45.0105 38.9243 45.2339 38.5374 45.2339 38.1187V21.8812C45.2339 21.4625 45.0105 21.0757 44.648 20.8664L30.5856 12.7477C30.2231 12.5383 29.7763 12.5385 29.4138 12.7477L15.3516 20.8664C14.989 21.0757 14.7656 21.4626 14.7656 21.8812ZM17.1093 23.911L28.8279 30.6767V44.208L17.1093 37.4423V23.911ZM41.7183 21.8813L29.9997 28.647L25.3123 25.9407L37.0308 19.175L41.7183 21.8813ZM31.1716 44.2079V30.6767L42.8901 23.911V37.4422L31.1716 44.2079ZM29.9997 15.1156L34.6871 17.8219L22.9686 24.5876L18.2812 21.8813L29.9997 15.1156Z" fill="#243143"/>
<path d="M38.8472 33.9172L34.6682 36.3299C34.1077 36.6534 33.9156 37.3701 34.2393 37.9306C34.5646 38.4963 35.2895 38.6803 35.84 38.3595L40.0191 35.9468C40.5796 35.6233 40.7716 34.9066 40.448 34.3461C40.1247 33.7857 39.4082 33.5936 38.8472 33.9172Z" fill="#243143"/>
<path d="M19.0769 12.1664C20.6301 12.1088 20.629 9.87976 19.0769 9.82269H19.0761C17.5229 9.88047 17.525 12.1096 19.0769 12.1664Z" fill="#243143"/>
</g>
<defs>
<clipPath id="clip0_124_109">
<rect width="60" height="60" fill="white"/>
</clipPath>
</defs>
</svg>
