<svg width="63" height="14" viewBox="0 0 63 14" fill="none" xmlns="http://www.w3.org/2000/svg">
<g clip-path="url(#clip0_124_302)">
<path d="M22.2916 9.84019C20.8114 9.84019 19.6114 8.56867 19.6114 6.99943C19.6114 5.43019 20.8079 4.15867 22.2924 4.15867C23.777 4.15867 24.9726 5.43019 24.9726 6.99943C24.9726 8.56867 23.7761 9.84019 22.2924 9.84019H22.2916ZM24.9812 10.2008C24.9812 10.4613 25.4085 11.1915 25.9383 11.1915H26.2802C26.3439 11.1915 26.405 11.1652 26.45 11.1185C26.4951 11.0718 26.5204 11.0085 26.5204 10.9425V3.16804C26.5171 3.10449 26.4905 3.04465 26.446 3.00081C26.4015 2.95698 26.3424 2.93248 26.2811 2.93234H25.2239C25.1625 2.93248 25.1035 2.95698 25.059 3.00081C25.0145 3.04465 24.9879 3.10449 24.9846 3.16804V3.79981C24.3368 2.97222 23.3155 2.6293 22.2916 2.6293C21.733 2.62106 21.1783 2.72801 20.6599 2.94395C20.1415 3.15989 19.6696 3.48051 19.2717 3.88718C18.8739 4.29384 18.558 4.77843 18.3423 5.3128C18.1267 5.84716 18.0156 6.42063 18.0156 6.99987C18.0156 7.57912 18.1267 8.15259 18.3423 8.68695C18.558 9.22131 18.8739 9.70591 19.2717 10.1126C19.6696 10.5192 20.1415 10.8399 20.6599 11.0558C21.1783 11.2717 21.733 11.3787 22.2916 11.3704C23.3172 11.3704 24.4282 10.9584 24.9846 10.1999L24.9812 10.2008ZM29.0433 9.08703C29.6909 9.56664 30.4644 9.82944 31.2602 9.84019C31.9661 9.84019 32.6943 9.46095 32.6943 8.80171C32.6943 7.92095 31.1055 7.78361 30.1073 7.43184C29.1091 7.08006 28.2493 6.35259 28.2493 5.175C28.2493 3.37272 29.7979 2.62842 31.2406 2.62842C32.1567 2.62842 33.1011 2.94209 33.7139 3.39044C33.7423 3.40751 33.7672 3.43033 33.787 3.45755C33.8068 3.48477 33.8211 3.51583 33.829 3.54889C33.837 3.58195 33.8385 3.61634 33.8334 3.65001C33.8283 3.68367 33.8167 3.71593 33.7994 3.74487L33.2139 4.61057C33.1967 4.63934 33.1741 4.66422 33.1474 4.68371C33.1208 4.70321 33.0905 4.71693 33.0586 4.72404C33.0267 4.73116 32.9937 4.73152 32.9617 4.72512C32.9296 4.71871 32.8992 4.70567 32.8721 4.68677C32.4781 4.41652 32.0388 4.15513 31.2483 4.15513C30.2671 4.15513 29.8355 4.5769 29.8355 5.10057C29.8355 5.7288 30.5252 5.92551 31.3337 6.13994C32.7439 6.53335 34.2814 7.00652 34.2814 8.79816C34.2814 10.386 32.8481 11.3678 31.2653 11.3678C30.0688 11.3678 29.0433 11.0134 28.1886 10.3612C28.1386 10.3198 28.1053 10.2604 28.0953 10.1948C28.0854 10.1292 28.0995 10.0621 28.1348 10.0068L28.7168 9.14551C28.7343 9.11825 28.757 9.09499 28.7835 9.07716C28.81 9.05934 28.8397 9.04731 28.8708 9.04184C28.902 9.03636 28.9339 9.03754 28.9645 9.04531C28.9952 9.05309 29.0241 9.06728 29.0493 9.08703H29.0433ZM42.2048 10.2053C42.2048 10.4658 42.6321 11.1959 43.1611 11.1959H43.503C43.5667 11.1959 43.6279 11.1697 43.6731 11.123C43.7183 11.0763 43.7438 11.013 43.744 10.9469V3.16804C43.7407 3.10449 43.7141 3.04465 43.6696 3.00081C43.6251 2.95698 43.5661 2.93248 43.5047 2.93234H42.4441C42.3827 2.93248 42.3237 2.95698 42.2792 3.00081C42.2347 3.04465 42.208 3.10449 42.2048 3.16804V3.79981C41.557 2.97222 40.5357 2.6293 39.5109 2.6293C38.4033 2.64566 37.3464 3.11332 36.5687 3.93118C35.791 4.74905 35.355 5.85139 35.355 6.99987C35.355 8.14836 35.791 9.2507 36.5687 10.0686C37.3464 10.8864 38.4033 11.3541 39.5109 11.3704C40.5365 11.3704 41.6518 10.9584 42.2048 10.1999V10.2053ZM39.5152 9.84462C38.0341 9.84462 36.8342 8.5731 36.8342 7.00386C36.8342 5.43462 38.0307 4.1631 39.5152 4.1631C40.9997 4.1631 42.1962 5.43462 42.1962 7.00386C42.1962 8.5731 40.9997 9.84462 39.5152 9.84462ZM53.2151 10.4711V6.44829C53.2151 4.17994 51.8349 2.65057 49.635 2.65057C48.5847 2.65057 47.7249 3.27968 47.4207 3.82108V3.8131V3.8193C47.4207 3.27259 46.9933 2.95361 46.4643 2.95361H46.1225C46.0588 2.95384 45.9979 2.98015 45.9529 3.02679C45.9079 3.07344 45.8825 3.13663 45.8823 3.2026V10.9779C45.8858 11.0414 45.9125 11.1011 45.9569 11.1449C46.0014 11.1887 46.0603 11.2133 46.1216 11.2136H47.1796C47.1953 11.2149 47.211 11.2149 47.2267 11.2136L47.2472 11.2065L47.2702 11.1994C47.2796 11.1949 47.2888 11.1899 47.2976 11.1844L47.3104 11.1773C47.3208 11.1703 47.3306 11.1623 47.3395 11.1534L47.3446 11.1489C47.3891 11.1054 47.4154 11.0457 47.4181 10.9823V6.38272C47.4181 5.7978 47.6422 5.23684 48.0411 4.82324C48.4401 4.40964 48.9811 4.17728 49.5453 4.17728C50.1095 4.17728 50.6505 4.40964 51.0495 4.82324C51.4484 5.23684 51.6725 5.7978 51.6725 6.38272V10.9753C51.6758 11.0388 51.7024 11.0986 51.7469 11.1425C51.7914 11.1863 51.8504 11.2108 51.9118 11.2109H52.9733C52.9892 11.2123 53.0052 11.2123 53.0211 11.2109L53.0391 11.2047L53.0647 11.1968C53.0733 11.1927 53.0816 11.188 53.0895 11.1826C53.0946 11.1805 53.0995 11.1778 53.104 11.1746C53.1138 11.1674 53.1232 11.1597 53.1322 11.1516L53.1391 11.1463C53.1488 11.1362 53.1577 11.1252 53.1656 11.1135C53.1937 11.0751 53.2101 11.0288 53.2126 10.9806V10.4711H53.2151ZM61.4616 10.2053C61.4616 10.4658 61.8889 11.1959 62.4179 11.1959H62.7598C62.8236 11.1959 62.8847 11.1697 62.9299 11.123C62.9751 11.0763 63.0006 11.013 63.0008 10.9469V3.16804C62.9975 3.10449 62.9709 3.04465 62.9264 3.00081C62.8819 2.95698 62.8229 2.93248 62.7615 2.93234H61.7043C61.6429 2.93248 61.5839 2.95698 61.5394 3.00081C61.4949 3.04465 61.4683 3.10449 61.465 3.16804V3.79981C60.8163 2.97222 59.795 2.6293 58.7712 2.6293C58.2125 2.62106 57.6579 2.72801 57.1395 2.94395C56.621 3.15989 56.1492 3.48051 55.7513 3.88718C55.3535 4.29384 55.0375 4.77843 54.8219 5.3128C54.6062 5.84716 54.4952 6.42063 54.4952 6.99987C54.4952 7.57912 54.6062 8.15259 54.8219 8.68695C55.0375 9.22131 55.3535 9.70591 55.7513 10.1126C56.1492 10.5192 56.621 10.8399 57.1395 11.0558C57.6579 11.2717 58.2125 11.3787 58.7712 11.3704C59.7967 11.3704 60.9078 10.9584 61.4642 10.1999L61.4616 10.2053ZM58.772 9.84462C57.2909 9.84462 56.091 8.5731 56.091 7.00386C56.091 5.43462 57.2875 4.1631 58.772 4.1631C60.2565 4.1631 61.4522 5.43462 61.4522 7.00386C61.4522 8.5731 60.2557 9.84462 58.772 9.84462Z" fill="#243143"/>
<path d="M11.4317 7.41154C10.8032 7.41154 10.1888 7.60477 9.66625 7.96681C9.14369 8.32885 8.7364 8.84342 8.49592 9.44545C8.25544 10.0475 8.19257 10.7099 8.31525 11.349C8.43792 11.9881 8.74065 12.5751 9.18512 13.0358C9.6296 13.4965 10.1959 13.8102 10.8123 13.9372C11.4287 14.0642 12.0677 13.9989 12.6483 13.7494C13.2289 13.4999 13.7251 13.0775 14.0742 12.5356C14.4232 11.9937 14.6094 11.3567 14.6093 10.7051C14.6093 10.2725 14.5271 9.84414 14.3674 9.44449C14.2077 9.04484 13.9736 8.68173 13.6785 8.37588C13.3835 8.07003 13.0331 7.82745 12.6476 7.66199C12.2621 7.49652 11.8489 7.41142 11.4317 7.41154ZM3.17756 7.41154C2.54906 7.41154 1.93467 7.60477 1.41211 7.96681C0.889542 8.32885 0.482271 8.84342 0.241794 9.44545C0.00131676 10.0475 -0.0615551 10.7099 0.0611211 11.349C0.183797 11.9881 0.486499 12.5751 0.930975 13.0358C1.37545 13.4965 1.94173 13.8102 2.55818 13.9372C3.17462 14.0642 3.81355 13.9989 4.39416 13.7494C4.97476 13.4999 5.47096 13.0775 5.82001 12.5356C6.16906 11.9937 6.35529 11.3567 6.35512 10.7051C6.35489 9.8315 6.02001 8.99377 5.42413 8.37614C4.82825 7.75851 4.02016 7.41154 3.17756 7.41154ZM10.4822 3.29394C10.4822 3.94552 10.2958 4.58246 9.94666 5.12423C9.59751 5.666 9.10125 6.08825 8.52062 6.3376C7.94 6.58695 7.30109 6.65219 6.68471 6.52507C6.06832 6.39795 5.50215 6.08419 5.05776 5.62346C4.61337 5.16272 4.31072 4.57571 4.18811 3.93665C4.0655 3.2976 4.12843 2.6352 4.36893 2.03322C4.60943 1.43124 5.01672 0.91672 5.53926 0.554723C6.06181 0.192727 6.67615 -0.000488281 7.30462 -0.000488281C8.14729 -0.000253393 8.95539 0.346913 9.55125 0.964688C10.1471 1.58246 10.482 2.42028 10.4822 3.29394Z" fill="url(#paint0_radial_124_302)"/>
</g>
<defs>
<radialGradient id="paint0_radial_124_302" cx="0" cy="0" r="1" gradientUnits="userSpaceOnUse" gradientTransform="translate(7.31252 7.31239) scale(9.69052 9.28657)">
<stop stop-color="#FFB900"/>
<stop offset="0.6" stop-color="#F95D8F"/>
<stop offset="1" stop-color="#F95353"/>
</radialGradient>
<clipPath id="clip0_124_302">
<rect width="63" height="14" fill="white" transform="translate(0 -0.000488281)"/>
</clipPath>
</defs>
</svg>
