<svg width="177" height="141" viewBox="0 0 177 141" fill="none" xmlns="http://www.w3.org/2000/svg">
<path d="M167.234 101.715C166.931 102.485 167.31 103.356 168.081 103.66C168.851 103.963 169.722 103.584 170.026 102.814L167.234 101.715ZM108.101 52.0478L108.988 53.2571L108.101 52.0478ZM119.425 80.143L118.05 79.5431L119.425 80.143ZM71.7348 21.1716L71.4705 19.6951L71.7348 21.1716ZM170.026 102.814C176.361 86.7242 171.431 65.9498 159.63 53.0874C153.698 46.6214 145.963 42.0798 136.956 41.1788C127.939 40.2769 117.838 43.0421 107.213 50.8384L108.988 53.2571C119.143 45.8049 128.523 43.3502 136.658 44.1639C144.802 44.9786 151.89 49.0881 157.419 55.1155C168.543 67.2402 173.098 86.8225 167.234 101.715L170.026 102.814ZM107.213 50.8384C88.4012 64.6429 86.7511 81.5496 92.8058 90.5984C95.8217 95.1056 100.797 97.5899 106.196 96.2406C111.511 94.9119 116.769 89.9799 120.8 80.743L118.05 79.5431C114.202 88.3619 109.504 92.3215 105.468 93.3301C101.516 94.318 97.7448 92.585 95.2992 88.9301C90.4311 81.6548 90.9984 66.4581 108.988 53.2571L107.213 50.8384ZM120.8 80.743C129.531 60.7365 127.279 43.6206 117.538 32.3761C107.834 21.174 91.0331 16.1939 71.4705 19.6951L71.999 22.6482C90.8358 19.2769 106.446 24.1533 115.271 34.3403C124.058 44.4849 126.452 60.2909 118.05 79.5431L120.8 80.743ZM71.4705 19.6951C40.2749 25.2782 14.2269 48.2297 5.06641 59.0173L7.35317 60.9592C16.2765 50.4507 41.7559 28.0608 71.999 22.6482L71.4705 19.6951Z" fill="#B7764B"/>
<path d="M8.62482 44.9154C8.73895 48.1749 8.48512 54.5954 6.27928 58.8309C3.52198 64.1253 7.74015 55.7821 21.7946 55.8125" stroke="#B7764B" stroke-width="3" stroke-linecap="round"/>
</svg>
