<svg width="46" height="37" viewBox="0 0 46 37" fill="none" xmlns="http://www.w3.org/2000/svg">
<path d="M42.5363 1.99951V0.999512H41.5363H36.7263C32.703 0.999512 29.5014 1.99607 27.3117 4.1649C25.1201 6.33548 24.1117 9.51194 24.1117 13.503V25.5875C24.1117 28.6 25.0495 31.1457 26.9734 33.1379L26.9889 33.1538L27.005 33.1691C29.0098 35.0684 31.5331 35.9995 34.4972 35.9995C37.4482 35.9995 39.9658 35.1157 41.9724 33.3011L41.981 33.2933L41.9894 33.2853C44.0076 31.3734 45 28.8933 45 25.9361C45 23.1817 43.9862 20.857 41.9724 19.036C39.9658 17.2213 37.4482 16.3375 34.4972 16.3375H33.7374V13.6192C33.7374 12.1878 34.0977 11.2974 34.6436 10.7567C35.1913 10.2142 36.0959 9.85515 37.5475 9.85515H41.5363H42.5363V8.85515V1.99951ZM19.4246 1.99951V0.999512H18.4246H13.6145C9.59128 0.999512 6.38968 1.99607 4.19993 4.1649C2.00841 6.33548 1 9.51194 1 13.503V25.5875C1 28.6 1.93778 31.1457 3.86169 33.1379L3.87712 33.1538L3.89326 33.1691C5.89802 35.0684 8.42133 35.9995 11.3855 35.9995C14.3365 35.9995 16.854 35.1157 18.8607 33.3011L18.8693 33.2933L18.8777 33.2853C20.8958 31.3734 21.8883 28.8933 21.8883 25.9361C21.8883 23.1817 20.8744 20.857 18.8607 19.036C16.854 17.2213 14.3365 16.3375 11.3855 16.3375H10.6257V13.6192C10.6257 12.1878 10.986 11.2974 11.5319 10.7567C12.0796 10.2142 12.9841 9.85515 14.4358 9.85515H18.4246H19.4246V8.85515V1.99951Z" fill="white" stroke="#B7764B" stroke-width="2"/>
</svg>
