<svg width="110" height="110" viewBox="0 0 110 110" fill="none" xmlns="http://www.w3.org/2000/svg">
<rect x="0.5" y="0.5" width="99" height="99" rx="29.5" fill="#2C2C2E" fill-opacity="0.5" stroke="#C2A38F" stroke-dasharray="6 6"/>
<rect x="10" y="10" width="100" height="100" rx="30" fill="#2B2B2E"/>
<rect x="35" y="35" width="50" height="50" rx="16" fill="#B7764B"/>
<path d="M62.4018 51.3538C61.475 51.0964 60.5149 51.6391 60.2573 52.566L56.3862 66.5015C56.1288 67.4284 56.6715 68.3886 57.5984 68.646C57.7544 68.6893 57.9113 68.71 58.0656 68.71C58.8286 68.71 59.5288 68.2049 59.743 67.4339L63.614 53.4984C63.8715 52.5716 63.3288 51.6113 62.4018 51.3538Z" fill="white"/>
<path d="M52.5421 51.6931C51.8023 51.0778 50.704 51.1789 50.089 51.9186L44.2825 58.9012C43.7448 59.5478 43.7458 60.4861 44.2848 61.1316L50.0913 68.0845C50.4358 68.4971 50.9308 68.7099 51.4292 68.7099C51.823 68.7099 52.219 68.5771 52.5449 68.305C53.2833 67.6883 53.382 66.5898 52.7654 65.8514L47.8895 60.0128L52.7677 54.1463C53.3827 53.4065 53.2817 52.3081 52.5421 51.6931Z" fill="white"/>
<path d="M75.715 58.8685L69.9086 51.9158C69.2919 51.1773 68.1933 51.0787 67.455 51.6954C66.7165 52.312 66.6179 53.4106 67.2346 54.1489L72.1105 59.9876L67.2323 65.8541C66.6171 66.5938 66.7181 67.6922 67.4578 68.3072C67.7832 68.5779 68.178 68.7098 68.5706 68.7098C69.0703 68.7098 69.5664 68.4959 69.9109 68.0815L75.7173 61.0989C76.255 60.4522 76.2541 59.5139 75.715 58.8685Z" fill="white"/>
</svg>
