<svg width="40" height="40" viewBox="0 0 40 40" fill="none" xmlns="http://www.w3.org/2000/svg">
<g clip-path="url(#clip0_124_349)">
<path d="M5.86068 22.5671C2.63623 22.5671 0.0118534 25.1852 0.00154089 28.4075C-0.0116622 28.8964 -0.0488496 34.5756 5.03209 39.6567C5.48959 40.1144 6.2317 40.1145 6.68928 39.6567C11.7703 34.5756 11.733 28.8964 11.7198 28.4075C11.7095 25.1852 9.08513 22.5671 5.86068 22.5671ZM8.88693 31.5658C8.2999 33.5975 7.28381 35.457 5.86068 37.1078C4.43756 35.457 3.42154 33.5975 2.83443 31.5658C2.3117 29.7564 2.34412 28.4797 2.34435 28.4715C2.3449 28.4565 2.34521 28.4415 2.34521 28.4264C2.34521 26.4879 3.92224 24.9108 5.86068 24.9108C7.79912 24.9108 9.37615 26.4879 9.37615 28.4264C9.37615 28.4414 9.37631 28.452 9.37685 28.467C9.37724 28.4797 9.40967 29.7564 8.88693 31.5658Z" fill="#243143"/>
<path d="M5.86035 29.5981C6.50756 29.5981 7.03223 29.0735 7.03223 28.4263C7.03223 27.7791 6.50756 27.2544 5.86035 27.2544C5.21314 27.2544 4.68848 27.7791 4.68848 28.4263C4.68848 29.0735 5.21314 29.5981 5.86035 29.5981Z" fill="#243143"/>
<path d="M37.9448 4.42039L39.7798 1.85344C40.3332 1.07945 39.7789 0 38.8266 0H29.4493C28.8021 0 28.2775 0.524687 28.2775 1.17188V13.903H27.3827C26.7355 13.903 26.2109 14.4277 26.2109 15.0748C26.2109 15.722 26.7356 16.2467 27.3827 16.2467H31.5158C32.163 16.2467 32.6876 15.722 32.6876 15.0748C32.6876 14.4277 32.1629 13.903 31.5158 13.903H30.6211V8.63305H38.8266C39.8002 8.63305 40.3492 7.50953 39.7512 6.74141L37.9448 4.42039ZM35.5583 5.16992L36.4296 6.28937H30.6212V2.34375H36.5484L35.5297 3.76859C35.228 4.19055 35.2397 4.76063 35.5583 5.16992Z" fill="#B7764B"/>
<path d="M34.018 23.1429C33.0848 20.3249 30.4245 18.3586 27.3894 18.3586H18.1406C17.6653 16.9792 16.3553 15.9851 14.8166 15.9851C13.2796 15.9851 11.9708 16.9771 11.4942 18.354C9.01844 18.2597 7.03312 16.2172 7.03312 13.7187V11.2203C7.03312 8.66185 9.11453 6.58044 11.6728 6.58044H16.6859C17.1697 7.94443 18.4722 8.92419 19.9998 8.92419C21.5275 8.92419 22.83 7.94443 23.3138 6.58044H25.0083C25.6555 6.58044 26.1801 6.05576 26.1801 5.40857C26.1801 4.76138 25.6554 4.23669 25.0083 4.23669H23.3138C22.83 2.87271 21.5275 1.89294 19.9998 1.89294C18.4722 1.89294 17.1697 2.87271 16.6859 4.23669H11.6728C7.82219 4.23669 4.68945 7.36951 4.68945 11.2203V13.7187C4.68945 17.5158 7.73547 20.6146 11.5122 20.7003C12.0036 22.0499 13.2993 23.0164 14.8167 23.0164C16.3334 23.0164 17.6286 22.0509 18.1205 20.7023H27.3894C29.2388 20.7023 30.8781 21.8004 31.6154 23.4254C30.4716 24.0061 29.6854 25.1934 29.6854 26.5617C29.6854 27.9299 30.4716 29.1172 31.6154 29.6979C30.878 31.3229 29.2387 32.4211 27.3893 32.4211H23.3137C22.8299 31.0572 21.5274 30.0775 19.9998 30.0775C18.4722 30.0775 17.1697 31.0572 16.6859 32.4211H13.782C13.1348 32.4211 12.6102 32.9458 12.6102 33.5929C12.6102 34.2401 13.1349 34.7648 13.782 34.7648H16.6858C17.1695 36.1289 18.472 37.1087 19.9998 37.1087C21.5275 37.1087 22.8301 36.1289 23.3138 34.7648H27.3893C30.4245 34.7648 33.0848 32.7985 34.0179 29.9804C35.5634 29.611 36.7163 28.2189 36.7163 26.5617C36.7163 24.9045 35.5635 23.5124 34.018 23.1429ZM19.9998 4.23669C20.6459 4.23669 21.1716 4.7624 21.1716 5.40857C21.1716 6.05474 20.6459 6.58044 19.9998 6.58044C19.3536 6.58044 18.828 6.05474 18.828 5.40857C18.828 4.7624 19.3536 4.23669 19.9998 4.23669ZM14.8166 20.6726C14.1705 20.6726 13.6448 20.1469 13.6448 19.5008C13.6448 18.8546 14.1705 18.3289 14.8166 18.3289C15.4628 18.3289 15.9884 18.8546 15.9884 19.5008C15.9884 20.1469 15.4628 20.6726 14.8166 20.6726ZM19.9998 34.765C19.3536 34.765 18.828 34.2393 18.828 33.5931C18.828 32.9469 19.3536 32.4212 19.9998 32.4212C20.6459 32.4212 21.1716 32.9469 21.1716 33.5931C21.1716 34.2393 20.6459 34.765 19.9998 34.765ZM33.2009 27.7336C32.5547 27.7336 32.0291 27.2079 32.0291 26.5617C32.0291 25.9155 32.5547 25.3898 33.2009 25.3898C33.847 25.3898 34.3727 25.9155 34.3727 26.5617C34.3727 27.2079 33.847 27.7336 33.2009 27.7336Z" fill="#243143"/>
</g>
<defs>
<clipPath id="clip0_124_349">
<rect width="40" height="40" fill="white"/>
</clipPath>
</defs>
</svg>
