<svg width="40" height="40" viewBox="0 0 40 40" fill="none" xmlns="http://www.w3.org/2000/svg">
<g clip-path="url(#clip0_187_2)">
<path d="M14.0387 7.81782C14.2023 8.21056 14.6657 8.40337 15.059 8.24048C15.4521 8.07775 15.6448 7.61322 15.4817 7.22017C15.3185 6.82697 14.8551 6.63439 14.4613 6.79751C14.0689 6.96009 13.8751 7.42517 14.0387 7.81782Z" fill="#243143"/>
<path d="M17.3582 7.81787C17.5216 8.21053 17.9851 8.40388 18.3786 8.24053C18.7716 8.0774 18.964 7.61349 18.8012 7.22021C18.6384 6.82717 18.1742 6.63428 17.7809 6.79756C17.3883 6.9606 17.1942 7.42459 17.3582 7.81787Z" fill="#243143"/>
<path d="M15.4823 12.6921C15.3541 12.3841 15.0358 12.1887 14.7033 12.2125C14.364 12.2369 14.0739 12.4894 13.999 12.8203C13.8446 13.5028 14.6389 14.0292 15.2106 13.6296C15.5074 13.4222 15.6193 13.026 15.4823 12.6921Z" fill="#243143"/>
<path d="M18.8007 12.6921C18.6726 12.3842 18.354 12.1887 18.0217 12.2125C17.6819 12.2369 17.3925 12.4889 17.3174 12.8203C17.1629 13.5025 17.9569 14.03 18.5287 13.6296C18.8257 13.4217 18.9379 13.0266 18.8007 12.6921Z" fill="#243143"/>
<path d="M9.42961 24.7442H6.51719V22.2444C6.51719 21.8246 6.85875 21.483 7.27859 21.483H9.88844C10.3198 21.483 10.6697 21.1332 10.6697 20.7018C10.6697 20.2704 10.3198 19.9205 9.88844 19.9205H7.27859C5.99719 19.9205 4.95469 20.963 4.95469 22.2444V24.7442H2.04227C0.916172 24.7442 0 25.6603 0 26.7864V34.0066C0 35.1327 0.916172 36.0489 2.04227 36.0489H9.42969C10.5558 36.0489 11.472 35.1327 11.472 34.0066V26.7864C11.4719 25.6603 10.5557 24.7442 9.42961 24.7442ZM1.5625 26.7864C1.5625 26.5219 1.77773 26.3066 2.04227 26.3066H9.42969C9.69422 26.3066 9.90945 26.5219 9.90945 26.7864V28.1322H1.5625V26.7864ZM9.90937 34.0066C9.90937 34.2712 9.69414 34.4864 9.42961 34.4864H2.04227C1.77773 34.4864 1.5625 34.2712 1.5625 34.0066V29.6947H9.90937V34.0066Z" fill="#B7764B"/>
<path d="M37.9576 24.7443H35.0452V22.2445C35.0452 20.9631 34.0027 19.9206 32.7213 19.9206H20.7811V16.5339H27.4585C27.6334 16.5339 27.8053 16.4739 27.9425 16.3656C27.9746 16.3403 28.0942 16.1896 28.1284 16.1896C28.9782 15.3532 29.4655 14.1898 29.4655 12.9976C29.4655 12.0007 29.1237 11.0248 28.5152 10.2425C29.1236 9.46035 29.4655 8.48433 29.4655 7.48746C29.4655 6.29574 28.9786 5.13269 28.1293 4.29644C27.9375 4.10761 27.7443 3.95105 27.4584 3.95105H12.5413C12.2557 3.95105 12.0621 4.10777 11.8704 4.29652C11.0212 5.13269 10.5342 6.29574 10.5342 7.48746C10.5342 8.48441 10.8761 9.46035 11.4845 10.2425C10.8761 11.0247 10.5342 12.0007 10.5342 12.9976C10.5342 14.1899 11.0216 15.3533 11.8714 16.1895C12.0629 16.3779 12.2559 16.5339 12.5412 16.5339H19.2186V19.9206H16.7633C16.3319 19.9206 15.9821 20.2704 15.9821 20.7018C15.9821 21.1332 16.3319 21.4831 16.7633 21.4831H19.2186V24.7443H16.3882C15.2621 24.7443 14.3459 25.6604 14.3459 26.7865V34.0068C14.3459 35.1328 15.2621 36.049 16.3882 36.049H23.6879C24.8139 36.049 25.7301 35.1328 25.7301 34.0068V26.7865C25.7301 25.6604 24.8139 24.7443 23.6879 24.7443H20.7811V21.4831H32.7213C33.1411 21.4831 33.4827 21.8246 33.4827 22.2445V24.7443H30.5703C29.4442 24.7443 28.528 25.6604 28.528 26.7865V34.0068C28.528 35.1328 29.4442 36.049 30.5703 36.049H37.9577C39.0838 36.049 40 35.1328 40 34.0068V26.7865C39.9999 25.6603 39.0837 24.7443 37.9576 24.7443ZM12.8665 5.51347H27.1332C27.624 6.04824 27.903 6.75957 27.903 7.48738C27.903 8.21519 27.6241 8.92644 27.1332 9.46121H12.8665C12.3757 8.92644 12.0967 8.21527 12.0967 7.48738C12.0968 6.75957 12.3757 6.04816 12.8665 5.51347ZM12.0968 12.9975C12.0968 12.2698 12.3757 11.5583 12.8666 11.0236H27.1332C27.6241 11.5584 27.9031 12.2697 27.9031 12.9975C27.9031 13.7253 27.6242 14.4366 27.1333 14.9714H12.8665C12.3757 14.4366 12.0968 13.7254 12.0968 12.9975ZM24.1675 34.0067C24.1675 34.2712 23.9523 34.4864 23.6878 34.4864H16.3882C16.1236 34.4864 15.9084 34.2712 15.9084 34.0067V29.6947H24.1675V34.0067ZM24.1675 26.7864V28.1322H15.9084V26.7864C15.9084 26.5219 16.1236 26.3067 16.3882 26.3067H23.6879C23.9523 26.3068 24.1675 26.5219 24.1675 26.7864ZM30.0905 26.7864C30.0905 26.5219 30.3057 26.3067 30.5703 26.3067H37.9577C38.2222 26.3067 38.4375 26.5219 38.4375 26.7864V28.1322H30.0905V26.7864ZM38.4374 34.0067C38.4374 34.2712 38.2222 34.4864 37.9576 34.4864H30.5702C30.3057 34.4864 30.0904 34.2712 30.0904 34.0067V29.6947H38.4374V34.0067Z" fill="#243143"/>
<path d="M14.0704 20.4031C13.9093 20.0095 13.442 19.8178 13.0501 19.9805C12.6567 20.1438 12.4644 20.607 12.6275 21.0008C12.7903 21.394 13.2546 21.5863 13.6478 21.4234C14.04 21.261 14.234 20.7956 14.0704 20.4031Z" fill="#243143"/>
</g>
<defs>
<clipPath id="clip0_187_2">
<rect width="40" height="40" fill="white"/>
</clipPath>
</defs>
</svg>
