<svg width="40" height="40" viewBox="0 0 40 40" fill="none" xmlns="http://www.w3.org/2000/svg">
<g clip-path="url(#clip0_124_339)">
<path d="M24.5578 14.6085H29.1746C29.5377 14.6085 29.832 14.3142 29.832 13.9511C29.832 12.7295 28.8855 11.7296 27.686 11.6431C28.003 11.3977 28.208 11.0144 28.208 10.5824V10.1199C28.208 9.37887 27.6073 8.77808 26.8662 8.77808C26.1251 8.77808 25.5243 9.37887 25.5243 10.1199V10.5824C25.5243 11.0144 25.7293 11.3976 26.0464 11.6431C24.8468 11.7296 23.9004 12.7295 23.9004 13.9511C23.9004 14.3142 24.1947 14.6085 24.5578 14.6085Z" fill="#B7764B"/>
<path d="M39.4828 25.7171C39.017 25.0024 38.3006 24.5117 37.4658 24.3356C36.631 24.1597 35.7775 24.3192 35.0627 24.785L28.0129 29.3794C27.7678 29.5391 27.512 29.6787 27.2488 29.7998C27.3483 29.5506 27.4195 29.2858 27.4563 29.0079C27.6802 27.3206 26.5527 25.715 24.8896 25.3526L19.7975 24.2431C18.3321 22.8915 16.4401 22.0383 14.4442 21.8335C12.3412 21.6178 10.2056 22.1358 8.43129 23.2921C7.45243 23.9301 6.23396 25.0828 5.40222 26.3946C5.28995 26.2572 5.13377 26.1611 4.95853 26.1242C4.75595 26.0814 4.54438 26.1209 4.37078 26.2341L0.354815 28.8514C-0.00667948 29.087 -0.108792 29.571 0.12684 29.9325L6.44912 39.6336C6.59889 39.8635 6.84906 39.9884 7.10445 39.9884C7.25063 39.9884 7.3986 39.9474 7.53025 39.8616L11.5463 37.2443C11.7199 37.1312 11.8414 36.9538 11.8842 36.751C11.8901 36.7227 11.8941 36.6942 11.8969 36.6656C14.0955 36.303 16.3698 36.3996 18.5282 36.9534C19.8419 37.2905 21.1828 37.4564 22.5189 37.4564C25.6179 37.4563 28.6896 36.5638 31.325 34.8463L38.5507 30.1373C40.0264 29.1756 40.4444 27.1927 39.4828 25.7171ZM7.33165 38.126L1.86251 29.7339L4.56938 27.9698L10.0386 36.3619L7.33165 38.126ZM37.6976 28.8282L30.472 33.5372C27.0661 35.7569 22.8544 36.4503 18.9167 35.4399C16.3888 34.7912 13.7157 34.7139 11.1539 35.2113L6.36693 27.8659C6.99047 26.5636 8.26245 25.2674 9.28451 24.6012C10.7819 23.6255 12.5115 23.2058 14.2848 23.3879C16.0088 23.5647 17.639 24.3223 18.8749 25.521C18.9794 25.6224 19.1102 25.6925 19.2524 25.7235L24.5569 26.8793C25.4319 27.07 26.0251 27.9147 25.9074 28.8025C25.782 29.748 24.9203 30.4185 23.9846 30.2975C23.9837 30.2974 20.0959 29.7899 20.0959 29.7899C19.668 29.7345 19.276 30.0356 19.22 30.4635C19.1642 30.8913 19.4658 31.2835 19.8936 31.3393L23.7797 31.8467C25.5575 32.0786 27.3638 31.6675 28.8661 30.6885L35.9159 26.0941C36.281 25.8561 36.7171 25.7746 37.1434 25.8646C37.5699 25.9545 37.9358 26.2051 38.1737 26.5703C38.665 27.3241 38.4513 28.337 37.6976 28.8282Z" fill="#243143"/>
<path d="M8.34361 11.9351L6.56278 13.7159C6.33942 13.9394 6.27254 14.2754 6.39348 14.5673C6.51434 14.8592 6.7992 15.0495 7.11522 15.0495H12.9314C13.1361 15.0495 13.3326 14.9692 13.4786 14.8259L15.0224 13.3108C15.7067 19.2398 20.7568 23.8588 26.8661 23.8588C33.4409 23.8588 38.7898 18.5099 38.7898 11.9351C38.7898 5.36037 33.4409 0.0114746 26.8661 0.0114746C20.7568 0.0114746 15.7067 4.63035 15.0224 10.5593L13.4786 9.0443C13.3326 8.90094 13.136 8.82062 12.9314 8.82062H7.1153C6.79927 8.82062 6.51442 9.01102 6.39348 9.3029C6.27262 9.59478 6.3395 9.93089 6.56286 10.1543L8.34361 11.9351ZM26.8662 1.57402C32.5794 1.57402 37.2273 6.22196 37.2273 11.9351C37.2273 17.6482 32.5794 22.2962 26.8662 22.2962C21.4159 22.2962 16.9352 18.066 16.5345 12.7164H18.8869C19.2797 16.7775 22.702 19.9523 26.8661 19.9523C31.2939 19.9523 34.8834 16.3629 34.8834 11.9351C34.8834 7.5073 31.2941 3.91783 26.8662 3.91783C22.7021 3.91783 19.2797 7.09268 18.8869 11.1538H16.5345C16.9353 5.80421 21.4159 1.57402 26.8662 1.57402ZM21.8766 11.1538H21.2476C21.6285 8.39038 23.9981 6.26165 26.8663 6.26165C29.9997 6.26165 32.5397 8.80171 32.5397 11.9351C32.5397 15.0684 29.9997 17.6085 26.8663 17.6085C23.9982 17.6085 21.6285 15.4798 21.2476 12.7164H21.8766C22.308 12.7164 22.6578 12.3666 22.6578 11.9351C22.6578 11.5036 22.3081 11.1538 21.8766 11.1538ZM10.0009 11.3826L9.00144 10.3832H12.6122L14.1935 11.9351L12.6122 13.487H9.00137L10.0009 12.4874C10.306 12.1824 10.306 11.6877 10.0009 11.3826Z" fill="#243143"/>
</g>
<defs>
<clipPath id="clip0_124_339">
<rect width="40" height="40" fill="white"/>
</clipPath>
</defs>
</svg>
