<svg width="110" height="110" viewBox="0 0 110 110" fill="none" xmlns="http://www.w3.org/2000/svg">
<rect x="0.5" y="0.5" width="99" height="99" rx="29.5" fill="#F4E6DE" stroke="#C2A38F" stroke-dasharray="6 6"/>
<rect x="10" y="10" width="100" height="100" rx="30" fill="white"/>
<g clip-path="url(#clip0_817_3)">
<path d="M68.659 83.3685L83.2731 68.754C84.324 67.7034 84.9023 66.3023 84.9023 64.8088C84.9023 63.3154 84.324 61.9142 83.2735 60.8636L80.9274 58.518C79.8769 57.467 78.4757 56.8884 76.9823 56.8884C75.4888 56.8884 74.0873 57.467 73.0371 58.518L58.4226 73.1325C57.372 74.183 56.7934 75.5838 56.7934 77.0776C56.7934 78.5711 57.372 79.9722 58.4226 81.0228L60.7683 83.3685C62.9438 85.544 66.4838 85.544 68.659 83.3685Z" fill="#B7764B"/>
<path d="M70.9655 56.4462C71.7147 55.6974 72.581 55.1077 73.5225 54.6896L67.8096 43.477C66.5721 41.049 63.4951 38.8105 60.8043 38.381L40.0668 35.0698C39.0857 34.9134 38.1545 35.0217 37.3523 35.3754L54.5668 52.59C55.3618 52.1436 56.261 51.9048 57.1975 51.9048C58.6367 51.9048 59.9894 52.4652 61.0068 53.483C62.0242 54.5004 62.5846 55.853 62.5846 57.292C62.5846 58.7309 62.0242 60.0835 61.0068 61.1013C59.9894 62.1187 58.6367 62.6794 57.1975 62.6794C55.7586 62.6794 54.4055 62.1187 53.3881 61.1013C52.3707 60.0835 51.8103 58.7309 51.8103 57.292C51.8103 56.3554 52.0491 55.4563 52.4955 54.6613L35.2805 37.4467C35.0344 38.0064 34.9051 38.6331 34.9051 39.2999L34.9051 39.3003C34.9051 39.5818 34.9284 39.8717 34.9749 40.1617L38.2857 60.8991C38.7156 63.5904 40.9541 66.6673 43.3821 67.9048L54.5947 73.6173C55.0128 72.6759 55.6022 71.8099 56.351 71.0607L70.9655 56.4462Z" fill="#B7764B"/>
</g>
<defs>
<clipPath id="clip0_817_3">
<rect width="50" height="50" fill="white" transform="translate(85 35) rotate(90)"/>
</clipPath>
</defs>
</svg>
