<svg width="215" height="145" viewBox="0 0 215 145" fill="none" xmlns="http://www.w3.org/2000/svg">
<path d="M200.794 142.608C200.301 143.274 200.442 144.213 201.108 144.706C201.774 145.199 202.713 145.058 203.206 144.392L200.794 142.608ZM140 56L140.544 57.3978L140 56ZM145 97L143.827 96.0647L145 97ZM103 2.5L103.127 1.00538L103 2.5ZM203.206 144.392C217.089 125.625 217.937 96.7504 207.018 75.8066C201.536 65.2926 193.045 56.6878 181.648 52.3782C170.241 48.0652 156.102 48.1217 139.456 54.6022L140.544 57.3978C156.648 51.1283 170.009 51.1848 180.587 55.1843C191.173 59.1872 199.151 67.2074 204.357 77.1934C214.814 97.2496 213.911 124.875 200.794 142.608L203.206 144.392ZM139.456 54.6022C109.98 66.0775 102.111 87.5132 106.767 101.201C109.088 108.025 114.589 112.864 121.904 112.988C129.134 113.11 137.655 108.614 146.173 97.9353L143.827 96.0647C135.595 106.386 127.865 110.088 121.955 109.988C116.13 109.89 111.598 106.088 109.607 100.235C105.638 88.5673 112.019 68.5031 140.544 57.3978L139.456 54.6022ZM146.173 97.9353C164.639 74.7834 167.627 51.6692 158.882 33.6597C150.161 15.7007 129.994 3.28657 103.127 1.00538L102.873 3.99462C129.006 6.21343 148.049 18.2192 156.183 34.9701C164.293 51.6705 161.781 73.5563 143.827 96.0647L146.173 97.9353ZM103.127 1.00538C60.2448 -2.63556 17.9642 18.3287 2.14687 29.2662L3.85313 31.7338C19.3692 21.0046 60.9552 0.435553 102.873 3.99462L103.127 1.00538Z" fill="#B7764B"/>
<path d="M11.5 11.5C10.5 15.8333 7.89986 24.2 3.49986 29C-2.00014 35 6.4999 25.5 24.9999 30.5" stroke="#B7764B" stroke-width="3" stroke-linecap="round"/>
</svg>
