<svg width="86" height="20" viewBox="0 0 86 20" fill="none" xmlns="http://www.w3.org/2000/svg">
<g clip-path="url(#clip0_124_18)">
<path d="M37.8746 15.7143H29.506L27.9096 20H23.6357L31.6691 -0.00506592H35.7913L43.8486 20H39.471L37.8746 15.7143ZM36.561 12.2004L33.7034 4.54257L30.8447 12.2004H36.561Z" fill="#243143"/>
<path d="M46.1299 -0.00506592H50.3011V20H46.1299V-0.00506592Z" fill="#243143"/>
<path d="M52.5811 -0.00506592H56.7523V16.228H65.7891V20H52.5811V-0.00506592Z" fill="#243143"/>
<path d="M71.573 18.7018C70.1617 17.8794 68.9818 16.6418 68.1624 15.1246C67.3398 13.6062 66.9289 11.898 66.9297 10C66.9304 8.10199 67.3413 6.39377 68.1624 4.87536C68.9814 3.35789 70.1615 2.12022 71.573 1.29824C73.025 0.432744 74.6556 0 76.4648 0C78.2741 0 79.9006 0.432744 81.3442 1.29824C82.752 2.12592 83.9308 3.36229 84.7548 4.87536C85.5849 6.39377 85.9996 8.10199 85.9989 10C85.9981 11.898 85.5834 13.6062 84.7548 15.1246C83.9305 16.6374 82.7517 17.8737 81.3442 18.7018C79.8998 19.5673 78.2734 20 76.4648 20C74.6563 20 73.0257 19.5673 71.573 18.7018ZM79.2529 15.4005C80.0756 14.884 80.7524 14.1233 81.2073 13.2038C81.6732 12.2148 81.9166 11.1154 81.9166 9.99937C81.9166 8.88336 81.6732 7.78393 81.2073 6.79489C80.752 5.87609 80.0753 5.11597 79.2529 4.59952C78.3973 4.083 77.4388 3.81239 76.4648 3.81239C75.4909 3.81239 74.5324 4.083 73.6768 4.59952C72.8544 5.11597 72.1777 5.87609 71.7224 6.79489C71.2565 7.78393 71.0132 8.88336 71.0132 9.99937C71.0132 11.1154 71.2565 12.2148 71.7224 13.2038C72.1773 14.1233 72.8541 14.884 73.6768 15.4005C74.5324 15.917 75.4909 16.1876 76.4648 16.1876C77.4388 16.1876 78.3973 15.917 79.2529 15.4005Z" fill="#243143"/>
<path d="M0 9.77478L10.6926 20H0V9.77478Z" fill="#243143"/>
<path d="M21.3532 0.0328989V5.55232L10.6937 15.7459L0 5.52069V0L10.6937 10.2265L10.7097 10.2417L21.3532 0.0328989Z" fill="#B7764B"/>
<path d="M10.6953 20L21.3537 9.80768V20H10.6953Z" fill="#243143"/>
</g>
<defs>
<clipPath id="clip0_124_18">
<rect width="86" height="20" fill="white"/>
</clipPath>
</defs>
</svg>
