<svg width="23" height="23" viewBox="0 0 23 23" fill="none" xmlns="http://www.w3.org/2000/svg">
<g clip-path="url(#clip0_124_385)">
<path d="M22.8829 0.941768C22.7805 0.851968 22.6348 0.831134 22.5113 0.888411L0.198941 11.2554C0.0788187 11.3112 0.00146448 11.4311 2.05342e-05 11.5635C-0.00142341 11.6959 0.0733868 11.8174 0.19234 11.8758L6.50672 14.9747C6.62251 15.0315 6.76058 15.0187 6.86399 14.9414L13.0033 10.3528L8.18369 15.3103C8.11493 15.3811 8.07986 15.478 8.08743 15.5763L8.5673 21.8258C8.57796 21.9643 8.67078 22.0827 8.80273 22.126C8.838 22.1376 8.87424 22.1432 8.91006 22.1432C9.00832 22.1432 9.1039 22.1011 9.17039 22.0241L12.5219 18.1404L16.6649 20.12C16.7549 20.163 16.859 20.1648 16.9504 20.125C17.0417 20.0852 17.1113 20.0078 17.1412 19.9127L22.9842 1.30324C23.025 1.17328 22.9852 1.03157 22.8829 0.941768Z" fill="#B7764B"/>
</g>
<defs>
<clipPath id="clip0_124_385">
<rect width="23" height="23" fill="white"/>
</clipPath>
</defs>
</svg>
